<?xml version="1.0" standalone="no"?>
<!DOCTYPE svg PUBLIC "-//W3C//DTD SVG 1.1//EN" "http://www.w3.org/Graphics/SVG/1.1/DTD/svg11.dtd">
<svg xmlns="http://www.w3.org/2000/svg" width="720" height="190" viewBox="0 0 720 190" fill="none">
<path fill-rule="evenodd" clip-rule="evenodd" d="M114.01 144.29L86.1801 89.28L47.1401 77.43L114.01 144.3V144.29ZM127.95 117.44L134.47 130.33H154.49L137.93 163.07L101.16 90.38H174.71L167.42 104.54H181.83L189.68 89.27L228.72 77.42L161.85 144.29L175.44 117.44H127.97H127.95ZM19.8801 68.35L19.8601 68.33L19.8401 68.31L19.8201 68.29L19.8001 68.27L19.7801 68.25L19.7601 68.23L19.7401 68.21L19.7201 68.19L19.7001 68.17L19.6801 68.15L19.6601 68.13L19.6401 68.1L19.6201 68.08L19.6001 68.06L19.5801 68.04H19.5701V68.02L19.5501 68L19.5301 67.98L19.5101 67.96L19.4901 67.93L19.4801 67.91L19.4601 67.89L19.4401 67.86L19.4201 67.83L19.4001 67.81L19.3801 67.78L19.3601 67.75L19.3401 67.72L19.3201 67.69L19.3001 67.67L19.2801 67.64L19.2601 67.61L19.2101 67.54C18.8801 67.07 18.6201 66.56 18.4301 66.04L18.2901 65.6L18.2201 65.3L18.1901 65.15L18.1401 64.84L18.1001 64.53L18.0901 64.37L18.0801 64.21V64.05V63.89V63.73V63.58V63.43V63.29L18.0901 63.27V63.13L18.1101 63.11L18.1301 62.98V62.95L18.1501 62.83V62.8L18.1801 62.68V62.64L18.2101 62.53V62.48L18.2401 62.38L18.2601 62.32L18.2801 62.23L18.3001 62.16L18.3201 62.08L18.3401 62L18.3601 61.93L18.3901 61.84L18.4401 61.68L18.4601 61.64L18.5001 61.53V61.49L18.5601 61.38V61.35L18.6201 61.23V61.21L18.6901 61.09V61.07L18.7601 60.94L18.8301 60.8L18.9101 60.66L18.9901 60.52L19.0701 60.39L19.1601 60.26L19.2501 60.13L19.3401 60L19.4401 59.87L19.6401 59.63L19.8501 59.4L19.9501 59.29H19.9601L20.0601 59.18L20.0801 59.16L20.1801 59.07L20.3001 58.97L20.3301 58.94L20.4201 58.87L20.5401 58.77L20.5901 58.73L20.6701 58.67L20.7301 58.63L58.8901 31.21C59.0701 31.07 59.2501 30.93 59.4401 30.81L89.2401 9.39997C90.3701 8.42997 91.8401 7.83997 93.4501 7.83997H182.51V7.85997C183.81 7.85997 185.12 8.24997 186.26 9.06997L215.69 30.21C216.69 30.6 217.59 31.24 218.29 32.08L254.78 58.3C255.22 58.57 255.64 58.89 256.03 59.27C258.55 61.79 258.55 65.87 256.03 68.38L142.53 181.88C140.01 184.4 135.93 184.4 133.42 181.88L19.8701 68.37L19.8901 68.35H19.8801ZM38.7201 61.44L86.7201 76.02L94.5001 54.63L63.8501 43.39L38.7301 61.44H38.7201ZM76.4801 34.32L103.84 44.35H172.33L199.48 34.4L180.42 20.71H95.4301L76.4801 34.32ZM212.11 43.48L181.38 54.74L189.12 76.02L237.12 61.44L212.11 43.47V43.48ZM107.22 57.25H168.61L175.97 77.49H99.8501L107.21 57.25H107.22Z" fill="white"/>
<path d="M333.61 138.63L324.97 118.56H283.24L274.6 138.63H258.78L297.59 52.86H310.36L349.17 138.63H333.6H333.61ZM288.35 106.39H319.74L304.05 69.89L288.36 106.39H288.35Z" fill="white"/>
<path d="M361.35 52.86H392.98C407.01 52.86 417.9 56.61 425.65 64.11C433.4 71.61 437.27 82.14 437.27 95.68C437.27 109.22 433.4 119.77 425.65 127.31C417.9 134.85 407.01 138.63 392.98 138.63H361.35V52.86ZM392.01 125.86C411.72 125.86 421.57 115.8 421.57 95.69C421.57 75.58 411.72 65.64 392.01 65.64H377.04V125.86H392.01Z" fill="white"/>
<path d="M524.25 94.71V133.76C521.09 135.46 516.79 136.86 511.35 137.96C505.91 139.06 500.44 139.6 494.92 139.6C486.57 139.6 479.37 137.86 473.33 134.37C467.29 130.88 462.66 125.85 459.46 119.28C456.25 112.71 454.65 104.84 454.65 95.68C454.65 86.52 456.23 78.75 459.4 72.14C462.56 65.53 467.12 60.5 473.09 57.05C479.05 53.6 486.09 51.88 494.2 51.88C506.2 51.88 515.94 55.61 523.4 63.07L520.24 69.03C516.18 65.3 512.09 62.62 507.95 61C503.81 59.38 499.19 58.57 494.08 58.57C483.94 58.57 476.13 61.79 470.66 68.24C465.18 74.69 462.45 83.83 462.45 95.68C462.45 107.53 465.23 117.01 470.78 123.42C476.33 129.83 484.39 133.03 494.93 133.03C498.99 133.03 502.96 132.69 506.85 132C510.74 131.31 514.27 130.36 517.43 129.14V101.04H494.8V94.71H524.24H524.25Z" fill="white"/>
<path d="M548.46 138.63V52.86H601.38V59.31H555.88V91.79H598.95V98.36H555.88V132.18H601.38V138.63H548.46Z" fill="white"/>
<path d="M695.67 52.86H702V138.63H694.94V67.82L664.89 125.12H659.29L629 68.3L629.12 138.62H621.94V52.86H628.27L662.21 117.83L695.67 52.86Z" fill="white"/>
</svg>